<?xml version="1.0" standalone="no"?>
<!DOCTYPE svg PUBLIC "-//W3C//DTD SVG 20010904//EN"
 "http://www.w3.org/TR/2001/REC-SVG-20010904/DTD/svg10.dtd">
<svg version="1.0" xmlns="http://www.w3.org/2000/svg"
 width="768.000000pt" height="768.000000pt" viewBox="0 0 768.000000 768.000000"
 preserveAspectRatio="xMidYMid meet">
<metadata>
Created by potrace 1.14, written by Peter Selinger 2001-2017
</metadata>
<g transform="translate(0.000000,768.000000) scale(0.100000,-0.100000)"
fill="#000000" stroke="none">
<path d="M1622 7163 l3 -518 175 0 175 0 3 173 2 172 155 0 155 0 0 -175 0
-175 173 2 172 3 3 518 2 517 -175 0 -175 0 0 -170 0 -170 -160 0 -160 0 0
170 0 170 -175 0 -175 0 2 -517z"/>
<path d="M2782 7508 l3 -173 153 -3 152 -3 0 -344 0 -345 173 2 172 3 3 343 2
342 150 0 150 0 0 175 0 175 -480 0 -480 0 2 -172z"/>
<path d="M3890 7160 l0 -520 170 0 170 0 2 256 3 255 114 -176 c62 -96 117
-178 121 -180 4 -3 59 75 121 172 l114 176 5 -249 5 -249 173 -3 172 -2 0 520
0 520 -182 0 -183 -1 -109 -180 -108 -180 -22 33 c-12 18 -62 99 -112 181
l-89 147 -182 0 -183 0 0 -520z"/>
<path d="M5230 7160 l0 -520 418 2 417 3 0 170 0 170 -242 3 -243 2 0 345 0
345 -175 0 -175 0 0 -520z"/>
<path d="M1126 6108 c3 -35 115 -1284 248 -2777 l242 -2714 699 -194 c385
-106 885 -245 1111 -307 l410 -114 1109 307 c696 193 1111 313 1116 322 4 8
116 1238 249 2734 132 1496 243 2739 246 2763 l6 42 -2721 0 -2722 0 7 -62z
m4415 -1073 c4 -3 -55 -671 -60 -682 -1 -2 -586 -3 -1301 -3 -1033 0 -1300 -3
-1300 -12 0 -7 14 -157 30 -333 16 -176 30 -326 30 -332 0 -10 255 -13 1240
-13 682 0 1240 -3 1240 -7 2 -31 -184 -2080 -189 -2085 -7 -7 -1370 -388
-1393 -388 -10 0 -1386 379 -1395 385 -4 2 -93 1006 -93 1042 l0 33 339 0 340
0 6 -52 c3 -29 14 -151 25 -272 11 -120 21 -220 23 -222 2 -2 172 -49 379
-104 l376 -101 373 101 c205 55 376 103 379 107 8 9 85 862 78 868 -2 3 -533
8 -1179 11 l-1175 7 -88 976 c-48 537 -90 1000 -93 1029 l-6 52 1705 0 c938 0
1707 -2 1709 -5z"/>
</g>
</svg>
